<svg width="25" height="21" viewBox="0 0 25 21" fill="none" xmlns="http://www.w3.org/2000/svg">
<path d="M5.37982 8.67549V12.0345C5.37982 12.5918 4.92701 13.0452 4.36908 13.0452H1.01074C0.45281 13.0452 0 12.5918 0 12.0345V8.67549C0 8.11689 0.45281 7.66475 1.01074 7.66475H4.36908C4.92701 7.66475 5.37982 8.11824 5.37982 8.67549ZM23.4437 7.66475H8.95446H8.4282C7.87095 7.66475 7.41746 8.11689 7.41746 8.67549V12.0345C7.41746 12.5918 7.87095 13.0452 8.4282 13.0452H8.95446H23.4444C24.0023 13.0452 24.4551 12.5918 24.4551 12.0345V8.67549C24.4544 8.11824 24.0023 7.66475 23.4437 7.66475ZM4.36908 0H1.01074C0.45281 0 0 0.452136 0 1.01074V4.36975C0 4.92835 0.45281 5.38049 1.01074 5.38049H4.36908C4.92701 5.38049 5.37982 4.92835 5.37982 4.36975V1.01074C5.37982 0.453484 4.92701 0 4.36908 0ZM23.4437 0H8.95446H8.4282C7.87095 0 7.41746 0.452136 7.41746 1.01074V4.36975C7.41746 4.92835 7.87095 5.38049 8.4282 5.38049H8.95446H23.4444C24.0023 5.38049 24.4551 4.92835 24.4551 4.36975V1.01074C24.4544 0.453484 24.0023 0 23.4437 0ZM4.36908 15.3302H1.01074C0.45281 15.3302 0 15.7823 0 16.3409V19.6993C0 20.2585 0.45281 20.71 1.01074 20.71H4.36908C4.92701 20.71 5.37982 20.2585 5.37982 19.6993V16.3409C5.37982 15.7823 4.92701 15.3302 4.36908 15.3302ZM23.4437 15.3302H8.95446H8.4282C7.87095 15.3302 7.41746 15.7823 7.41746 16.3409V19.6993C7.41746 20.2585 7.87095 20.71 8.4282 20.71H8.95446H23.4444C24.0023 20.71 24.4551 20.2585 24.4551 19.6993V16.3409C24.4544 15.7823 24.0023 15.3302 23.4437 15.3302Z" fill="#9AABC0"/>
</svg>
