<svg width="48" height="48" viewBox="0 0 48 48" fill="none" xmlns="http://www.w3.org/2000/svg">
<g opacity="0.5">
<path fill-rule="evenodd" clip-rule="evenodd" d="M27.6573 38C27.0733 38 26.4933 37.746 26.0973 37.254L16.4413 25.254C15.8453 24.512 15.8533 23.452 16.4633 22.72L26.4633 10.72C27.1693 9.87203 28.4313 9.75803 29.2813 10.464C30.1293 11.17 30.2433 12.432 29.5353 13.28L20.5853 24.022L29.2153 34.746C29.9073 35.606 29.7713 36.866 28.9093 37.558C28.5413 37.856 28.0973 38 27.6573 38Z" fill="#231F20"/>
<mask id="mask0" mask-type="alpha" maskUnits="userSpaceOnUse" x="16" y="10" width="14" height="28">
<path fill-rule="evenodd" clip-rule="evenodd" d="M27.6573 38C27.0733 38 26.4933 37.746 26.0973 37.254L16.4413 25.254C15.8453 24.512 15.8533 23.452 16.4633 22.72L26.4633 10.72C27.1693 9.87203 28.4313 9.75803 29.2813 10.464C30.1293 11.17 30.2433 12.432 29.5353 13.28L20.5853 24.022L29.2153 34.746C29.9073 35.606 29.7713 36.866 28.9093 37.558C28.5413 37.856 28.0973 38 27.6573 38Z" fill="white"/>
</mask>
<g mask="url(#mask0)">
<rect width="48" height="48" fill="white"/>
</g>
</g>
</svg>
