<svg width="48" height="48" viewBox="0 0 48 48" fill="none" xmlns="http://www.w3.org/2000/svg">
<g opacity="0.5">
<path fill-rule="evenodd" clip-rule="evenodd" d="M20.3427 38C20.9267 38 21.5067 37.746 21.9027 37.254L31.5587 25.254C32.1547 24.512 32.1467 23.452 31.5367 22.72L21.5367 10.72C20.8307 9.87203 19.5687 9.75803 18.7187 10.464C17.8707 11.17 17.7567 12.432 18.4647 13.28L27.4147 24.022L18.7847 34.746C18.0927 35.606 18.2287 36.866 19.0907 37.558C19.4587 37.856 19.9027 38 20.3427 38Z" fill="#231F20"/>
<mask id="mask0" mask-type="alpha" maskUnits="userSpaceOnUse" x="18" y="10" width="14" height="28">
<path fill-rule="evenodd" clip-rule="evenodd" d="M20.3427 38C20.9267 38 21.5067 37.746 21.9027 37.254L31.5587 25.254C32.1547 24.512 32.1467 23.452 31.5367 22.72L21.5367 10.72C20.8307 9.87203 19.5687 9.75803 18.7187 10.464C17.8707 11.17 17.7567 12.432 18.4647 13.28L27.4147 24.022L18.7847 34.746C18.0927 35.606 18.2287 36.866 19.0907 37.558C19.4587 37.856 19.9027 38 20.3427 38Z" fill="white"/>
</mask>
<g mask="url(#mask0)">
<rect width="48" height="48" transform="matrix(-1 0 0 1 48 0)" fill="white"/>
</g>
</g>
</svg>
