<svg width="22" height="22" viewBox="0 0 22 22" fill="none" xmlns="http://www.w3.org/2000/svg">
<path fill-rule="evenodd" clip-rule="evenodd" d="M14.6838 9.78881L12.2134 7.31839L13.9991 5.53181L16.4686 8.00131L14.6838 9.78881ZM17.7867 6.72622L17.7858 6.72531L15.276 4.21547C14.5967 3.53806 13.4298 3.50597 12.7863 4.15222L4.53999 12.3986C4.24116 12.6965 4.05599 13.0925 4.01749 13.5114L3.67008 17.3339C3.64624 17.6043 3.74249 17.872 3.93499 18.0645C4.10824 18.2377 4.34199 18.3331 4.58308 18.3331C4.61149 18.3331 4.63899 18.3321 4.66649 18.3294L8.48899 17.982C8.90883 17.9435 9.30391 17.7592 9.60183 17.4613L17.8491 9.21406C18.5164 8.54489 18.488 7.42839 17.7867 6.72622Z" fill="#231F20"/>
<mask id="mask0" mask-type="alpha" maskUnits="userSpaceOnUse" x="3" y="3" width="16" height="16">
<path fill-rule="evenodd" clip-rule="evenodd" d="M14.6838 9.78881L12.2134 7.31839L13.9991 5.53181L16.4686 8.00131L14.6838 9.78881ZM17.7867 6.72622L17.7858 6.72531L15.276 4.21547C14.5967 3.53806 13.4298 3.50597 12.7863 4.15222L4.53999 12.3986C4.24116 12.6965 4.05599 13.0925 4.01749 13.5114L3.67008 17.3339C3.64624 17.6043 3.74249 17.872 3.93499 18.0645C4.10824 18.2377 4.34199 18.3331 4.58308 18.3331C4.61149 18.3331 4.63899 18.3321 4.66649 18.3294L8.48899 17.982C8.90883 17.9435 9.30391 17.7592 9.60183 17.4613L17.8491 9.21406C18.5164 8.54489 18.488 7.42839 17.7867 6.72622Z" fill="white"/>
</mask>
<g mask="url(#mask0)">
<rect width="22" height="22" fill="#1859A9"/>
</g>
</svg>
