<svg width="28" height="28" viewBox="0 0 28 28" fill="none" xmlns="http://www.w3.org/2000/svg">
<path d="M23.8995 4.10049C21.2553 1.45627 17.7395 0 14 0C10.2605 0 6.74472 1.45627 4.10049 4.10049C1.45627 6.74472 0 10.2605 0 14C0 17.7397 1.45627 21.2553 4.10049 23.8995C6.74472 26.5437 10.2605 28 14 28C17.7395 28 21.2553 26.5437 23.8995 23.8995C26.5437 21.2553 28 17.7397 28 14C28 10.2605 26.5437 6.74472 23.8995 4.10049ZM20.0554 18.1216C20.5892 18.6557 20.5892 19.5213 20.0554 20.0551C19.7883 20.3222 19.4384 20.4557 19.0885 20.4557C18.7386 20.4557 18.3887 20.3222 18.1216 20.0551L14 15.9335L9.87836 20.0554C9.61133 20.3222 9.26141 20.4557 8.9115 20.4557C8.56158 20.4557 8.21167 20.3222 7.94464 20.0554C7.4108 19.5213 7.4108 18.6557 7.94464 18.1219L12.0665 14L7.94464 9.87836C7.4108 9.3443 7.4108 8.4787 7.94464 7.94485C8.4787 7.4108 9.3443 7.4108 9.87814 7.94485L14 12.0665L18.1216 7.94485C18.6557 7.41101 19.5213 7.4108 20.0551 7.94485C20.5892 8.4787 20.5892 9.3443 20.0551 9.87836L15.9335 14L20.0554 18.1216Z" fill="#9AABC0"/>
</svg>
