<svg width="13" height="7" viewBox="0 0 13 7" fill="none" xmlns="http://www.w3.org/2000/svg">
<path fill-rule="evenodd" clip-rule="evenodd" d="M6.12468 6.50625C5.92518 6.50625 5.72655 6.43644 5.56468 6.29591L0.314676 1.76266C-0.0563237 1.44261 -0.107074 0.870512 0.202676 0.486093C0.511551 0.101673 1.0628 0.0499942 1.43468 0.370042L6.1343 4.42821L10.826 0.516012C11.2023 0.202311 11.7535 0.263964 12.0563 0.653823C12.359 1.04368 12.2996 1.61397 11.9233 1.92857L6.6733 6.30588C6.51318 6.43916 6.31893 6.50625 6.12468 6.50625Z" fill="#231F20"/>
<mask id="mask0" mask-type="alpha" maskUnits="userSpaceOnUse" x="-1" y="0" width="14" height="7">
<path fill-rule="evenodd" clip-rule="evenodd" d="M6.12468 6.50625C5.92518 6.50625 5.72655 6.43644 5.56468 6.29591L0.314676 1.76266C-0.0563237 1.44261 -0.107074 0.870512 0.202676 0.486093C0.511551 0.101673 1.0628 0.0499942 1.43468 0.370042L6.1343 4.42821L10.826 0.516012C11.2023 0.202311 11.7535 0.263964 12.0563 0.653823C12.359 1.04368 12.2996 1.61397 11.9233 1.92857L6.6733 6.30588C6.51318 6.43916 6.31893 6.50625 6.12468 6.50625Z" fill="white"/>
</mask>
<g mask="url(#mask0)">
<rect x="-4.37524" y="-8" width="21" height="21.7596" fill="#0D1C2E"/>
</g>
</svg>
