<svg width="26" height="27" viewBox="0 0 26 27" fill="none" xmlns="http://www.w3.org/2000/svg">
<path d="M25.6792 1.40763C25.4649 1.19348 25.2109 1.08604 24.9174 1.08604C24.624 1.08604 24.3704 1.19348 24.1557 1.40763L21.9553 3.59158C20.7478 2.45167 19.3653 1.56843 17.8081 0.942264C16.251 0.316042 14.6481 0.00299072 13.0004 0.00299072C9.89693 0.00299072 7.18868 0.942324 4.87518 2.8214C2.56162 4.70025 1.03822 7.15165 0.304688 10.1762V10.2946C0.304688 10.4413 0.358226 10.5684 0.465482 10.6754C0.572738 10.7827 0.699619 10.8362 0.846302 10.8362H4.21481C4.46317 10.8362 4.63233 10.7064 4.72269 10.447C5.19659 9.31859 5.49553 8.65845 5.6198 8.46653C6.40967 7.18005 7.45916 6.16999 8.76828 5.43645C10.0775 4.70297 11.4881 4.33609 13.0002 4.33609C15.2687 4.33609 17.2378 5.10917 18.9081 6.65522L16.5717 8.99107C16.3579 9.20552 16.2503 9.45958 16.2503 9.75301C16.2503 10.0464 16.3578 10.3003 16.5717 10.5147C16.7864 10.7292 17.0404 10.8363 17.3339 10.8363H24.9174C25.2108 10.8363 25.4648 10.7292 25.6792 10.5147C25.8934 10.3003 26.0005 10.0464 26.0005 9.75301V2.16939C26.0005 1.87596 25.894 1.62214 25.6792 1.40763Z" fill="#9AABC0"/>
<path d="M25.0354 15.17H21.7854C21.5371 15.17 21.3678 15.2997 21.2777 15.5593C20.804 16.6878 20.5047 17.3477 20.3807 17.5396C19.5906 18.8258 18.5411 19.8362 17.2323 20.5697C15.923 21.3034 14.5124 21.6699 13.0003 21.6699C11.9057 21.6699 10.8505 21.4669 9.83498 21.0608C8.81934 20.6542 7.91078 20.0785 7.10965 19.3337L9.42878 17.0147C9.64311 16.8005 9.75037 16.5463 9.75037 16.253C9.75037 15.9596 9.64311 15.7054 9.42878 15.4913C9.21433 15.2767 8.96051 15.1693 8.66708 15.1693H1.08347C0.789862 15.1693 0.535923 15.2767 0.32153 15.4913C0.107137 15.7055 0 15.9597 0 16.2531V23.8367C0 24.1299 0.107137 24.3841 0.321589 24.5984C0.53616 24.8124 0.790099 24.9202 1.08353 24.9202C1.37689 24.9202 1.63071 24.8125 1.84523 24.5984L4.02882 22.4146C5.23638 23.5654 6.61043 24.4515 8.15084 25.0721C9.69126 25.693 11.2853 26.003 12.9328 26.003C16.025 26.003 18.722 25.0636 21.0241 23.1847C23.3263 21.306 24.8384 18.8541 25.561 15.8298C25.5723 15.8073 25.5777 15.7677 25.5777 15.7115C25.5777 15.5646 25.5239 15.4381 25.4167 15.3305C25.3094 15.2238 25.1823 15.17 25.0354 15.17Z" fill="#9AABC0"/>
</svg>
