<svg width="28" height="28" viewBox="0 0 28 28" fill="none" xmlns="http://www.w3.org/2000/svg">
<path d="M27.5297 12.4995L14.967 1.05241C14.4156 0.549893 13.5841 0.549948 13.0329 1.05236L0.470204 12.4995C0.0284945 12.902 -0.117411 13.5222 0.0983849 14.0794C0.314236 14.6366 0.839781 14.9966 1.43735 14.9966H3.44383V26.4657C3.44383 26.9204 3.81253 27.2891 4.26725 27.2891H11.1532C11.6079 27.2891 11.9766 26.9204 11.9766 26.4657V19.502H16.0235V26.4657C16.0235 26.9204 16.3923 27.2891 16.847 27.2891H23.7325C24.1873 27.2891 24.556 26.9205 24.556 26.4657V14.9966H26.5628C27.1603 14.9966 27.6859 14.6365 27.9018 14.0794C28.1173 13.5221 27.9714 12.902 27.5297 12.4995Z" fill="#9AABC0"/>
<path d="M24.341 2.31915H18.811L25.1644 8.0961V3.14252C25.1644 2.6878 24.7957 2.31915 24.341 2.31915Z" fill="#9AABC0"/>
</svg>
