<svg width="21" height="28" viewBox="0 0 21 28" fill="none" xmlns="http://www.w3.org/2000/svg">
<path d="M19.8333 25.6667H18.6667V21.8482C18.6667 19.9488 17.8582 18.1312 16.4465 16.8618L14.4713 15.085C14.1598 14.8038 13.9883 14.4188 13.9883 14C13.9883 13.5812 14.1598 13.1962 14.4713 12.9162L16.4465 11.1393C17.8582 9.86767 18.6667 8.05117 18.6667 6.15183V2.33333H19.8333C20.4785 2.33333 21 1.81067 21 1.16667C21 0.522667 20.4785 0 19.8333 0H1.16667C0.5215 0 0 0.522667 0 1.16667C0 1.81067 0.5215 2.33333 1.16667 2.33333H2.33333V6.15183C2.33333 8.05117 3.14183 9.86883 4.5535 11.1382L6.52867 12.915C6.84017 13.1962 7.01167 13.5812 7.01167 14C7.01167 14.4188 6.84017 14.8038 6.52867 15.0838L4.5535 16.8607C3.14183 18.1323 2.33333 19.9488 2.33333 21.8482V25.6667H1.16667C0.5215 25.6667 0 26.1893 0 26.8333C0 27.4773 0.5215 28 1.16667 28H19.8333C20.4785 28 21 27.4773 21 26.8333C21 26.1893 20.4785 25.6667 19.8333 25.6667ZM5.83333 21.9672C5.83333 21.1097 6.167 20.3047 6.77367 19.698L9.88167 16.59C10.2235 16.2482 10.7777 16.2482 11.1195 16.59L14.2275 19.698C14.8342 20.3047 15.1678 21.1097 15.1678 21.9672V25.6667H5.83333V21.9672Z" fill="#1859A9"/>
</svg>
