<svg width="39" height="39" viewBox="0 0 39 39" fill="none" xmlns="http://www.w3.org/2000/svg">
<path d="M24.5375 6.97944C24.5375 9.94222 22.1271 12.3526 19.1643 12.3526C17.689 12.3526 16.3508 11.7546 15.3788 10.7886L13.521 17.2909H24.8077L23.1382 11.4476L29.53 12.8035L31.003 5.79641L23.8007 4.26871C24.2682 5.06516 24.5375 5.99118 24.5375 6.97944Z" fill="#1553A0"/>
<path d="M9.59204 8.57435L14.4827 9.61173C14.0431 8.83318 13.791 7.93542 13.791 6.97946C13.791 5.18637 14.6748 3.59674 16.0286 2.62022L11.0777 1.57004L9.59204 8.57435Z" fill="#1553A0"/>
<path d="M36.137 4.50089L33.2889 6.04672L30.3806 19.8817C35.0643 19.8817 37.9264 17.2603 38.8039 13.1237C39.3994 10.3162 38.6734 6.62699 36.137 4.50089Z" fill="#76DDFB"/>
<path d="M11.4098 24.6797L10.0569 29.4151C13.1702 29.463 16.4399 29.9581 19.3426 30.3984C20.2416 30.5348 24.0957 31.4365 28.8492 31.4365L26.9187 24.6797H11.4098Z" fill="#1859A9"/>
<path d="M12.868 19.5762L12.0627 22.3945H26.2658L25.4605 19.5762H12.868Z" fill="#1859A9"/>
<path d="M19.8714 9.97767C21.5308 9.58542 22.558 7.92221 22.1658 6.2628C21.7735 4.60339 20.1103 3.57615 18.4509 3.96841C16.7915 4.36066 15.7643 6.02387 16.1565 7.68328C16.5488 9.34269 18.212 10.3699 19.8714 9.97767Z" fill="#1859A9"/>
<path d="M7.34024 29.5049V8.09669L8.84251 1.09589L3.77243 0.0204163L2.28662 7.02472L5.05509 7.61193V29.864C5.76143 29.699 6.51881 29.5794 7.34024 29.5049Z" fill="#1553A0"/>
<path d="M37.1502 35.4035C36.0061 34.3751 34.4279 33.8315 32.5861 33.8315C29.3026 33.8315 25.5835 33.5607 21.532 33.0267C20.7696 32.9261 19.9096 32.7957 18.9991 32.6576C16.07 32.2132 12.6569 31.6954 9.57313 31.6954C8.08869 31.6954 6.68081 31.8153 5.43928 32.1212C2.1859 32.9226 0 35.3318 0 39H39C38.7674 37.5216 38.1404 36.2935 37.1502 35.4035Z" fill="#1859A9"/>
</svg>
