<svg width="158" height="30" viewBox="0 0 158 30" fill="none" xmlns="http://www.w3.org/2000/svg">
<path d="M47.7237 24.2663C51.0973 24.2663 53.37 22.6239 53.9027 20.0938L50.4048 19.8629C50.0231 20.9016 49.0465 21.4432 47.7859 21.4432C45.8949 21.4432 44.6964 20.1914 44.6964 18.1584V18.1495H53.9826V17.1108C53.9826 12.4766 51.1772 10.1861 47.5728 10.1861C43.56 10.1861 40.9588 13.0359 40.9588 17.244C40.9588 21.5675 43.5245 24.2663 47.7237 24.2663ZM44.6964 15.8058C44.7763 14.2521 45.957 13.0092 47.6349 13.0092C49.2773 13.0092 50.4137 14.1811 50.4226 15.8058H44.6964ZM59.3448 24H63.0913L66.5447 12.1126H66.6868L70.1491 24H73.8956L79.098 5.81818H74.8988L71.8892 18.478H71.7294L68.418 5.81818H64.8224L61.5021 18.4513H61.3512L58.3416 5.81818H54.1424L59.3448 24ZM85.8341 24.2663C89.2077 24.2663 91.4804 22.6239 92.0131 20.0938L88.5152 19.8629C88.1334 20.9016 87.1569 21.4432 85.8962 21.4432C84.0052 21.4432 82.8067 20.1914 82.8067 18.1584V18.1495H92.093V17.1108C92.093 12.4766 89.2876 10.1861 85.6831 10.1861C81.6704 10.1861 79.0692 13.0359 79.0692 17.244C79.0692 21.5675 81.6349 24.2663 85.8341 24.2663ZM82.8067 15.8058C82.8866 14.2521 84.0674 13.0092 85.7453 13.0092C87.3877 13.0092 88.5241 14.1811 88.5329 15.8058H82.8067ZM98.343 5.81818H94.561V24H98.343V5.81818ZM105.154 5.81818H101.373V24H105.154V5.81818ZM114.458 24H125.44V21.6385H117.202V5.81818H114.458V24ZM134.101 24.2752C137.945 24.2752 140.457 21.4609 140.457 17.244C140.457 13.0004 137.945 10.1861 134.101 10.1861C130.257 10.1861 127.744 13.0004 127.744 17.244C127.744 21.4609 130.257 24.2752 134.101 24.2752ZM134.11 22.0469C131.597 22.0469 130.425 19.854 130.425 17.2351C130.425 14.625 131.597 12.4055 134.11 12.4055C136.604 12.4055 137.776 14.625 137.776 17.2351C137.776 19.854 136.604 22.0469 134.11 22.0469ZM149.138 29.3977C152.609 29.3977 155.29 27.8086 155.29 24.3018V10.3636H152.689V12.5742H152.493C152.023 11.7308 151.082 10.1861 148.543 10.1861C145.249 10.1861 142.825 12.7873 142.825 17.1286C142.825 21.4787 145.302 23.7958 148.525 23.7958C151.028 23.7958 151.996 22.3842 152.476 21.5142H152.644V24.1953C152.644 26.3349 151.179 27.2582 149.164 27.2582C146.954 27.2582 146.092 26.1484 145.622 25.3672L143.34 26.3082C144.059 27.9773 145.879 29.3977 149.138 29.3977ZM149.111 21.5941C146.741 21.5941 145.506 19.7741 145.506 17.093C145.506 14.4741 146.714 12.4411 149.111 12.4411C151.428 12.4411 152.671 14.332 152.671 17.093C152.671 19.9073 151.401 21.5941 149.111 21.5941Z" fill="#1553A0"/>
<path d="M18.2554 5.1774C18.2554 7.38165 16.4621 9.17492 14.2579 9.17492C13.1602 9.17492 12.1646 8.73 11.4415 8.01131L10.0593 12.8489H18.4564L17.2143 8.50162L21.9697 9.51035L23.0656 4.29725L17.7072 3.16068C18.055 3.75322 18.2554 4.44216 18.2554 5.1774Z" fill="#1553A0"/>
<path d="M7.13635 6.36395L10.7749 7.13575C10.4479 6.55652 10.2603 5.8886 10.2603 5.17739C10.2603 3.84337 10.9178 2.66072 11.925 1.93421L8.24165 1.15289L7.13635 6.36395Z" fill="#1553A0"/>
<path d="M26.8853 3.33334L24.7664 4.48341L22.6027 14.7764C26.0872 14.7764 28.2166 12.8261 28.8694 9.74853C29.3125 7.65984 28.7724 4.91512 26.8853 3.33334Z" fill="#76DDFB"/>
<path d="M8.48863 18.346L7.48206 21.869C9.79828 21.9047 12.2309 22.273 14.3904 22.6006C15.0593 22.7021 17.9267 23.3729 21.4632 23.3729L20.0269 18.346H8.48863Z" fill="#1859A9"/>
<path d="M9.57348 14.5491L8.97437 16.6459H19.5412L18.942 14.5491H9.57348Z" fill="#1859A9"/>
<path d="M14.7839 7.408C16.0185 7.11617 16.7827 5.87878 16.4909 4.64421C16.199 3.40964 14.9617 2.6454 13.7271 2.93723C12.4925 3.22906 11.7283 4.46645 12.0201 5.70102C12.3119 6.93559 13.5493 7.69983 14.7839 7.408Z" fill="#1859A9"/>
<path d="M5.46084 21.9358V6.00858L6.57849 0.800128L2.80646 0L1.70105 5.21106L3.76073 5.64793V22.203C4.28624 22.0803 4.84971 21.9913 5.46084 21.9358Z" fill="#1553A0"/>
<path d="M27.639 26.3243C26.7878 25.5592 25.6136 25.1548 24.2434 25.1548C21.8005 25.1548 19.0336 24.9533 16.0194 24.556C15.4522 24.4812 14.8123 24.3841 14.1349 24.2814C11.9557 23.9507 9.41651 23.5656 7.12221 23.5656C6.01782 23.5656 4.97038 23.6548 4.04671 23.8823C1.62627 24.4786 0 26.2709 0 29H29.0152C28.8421 27.9001 28.3757 26.9864 27.639 26.3243Z" fill="#1859A9"/>
</svg>
